<svg width="100" height="77" viewBox="0 0 100 77" fill="none" xmlns="http://www.w3.org/2000/svg">
<path d="M36.6235 3.5726L36.6737 3.5315L36.7213 3.4872C37.7858 2.4943 38.7774 2.0664 39.5986 2.0074C40.1937 1.9646 40.8495 2.1033 41.5532 2.5763V20.0571V22.0653L43.5613 22.0571L44.9947 22.0512C44.996 22.0512 44.9973 22.0512 44.9987 22.0512C75.6745 22.0529 98 42.3224 98 69.5464C98 71.9314 97.6972 73.202 97.4087 73.7945C97.373 73.868 97.341 73.9235 97.3145 73.9648C97.2625 73.9452 97.1974 73.9163 97.1194 73.8745C96.9107 73.7623 96.6561 73.5821 96.3726 73.3257C95.8008 72.8086 95.2391 72.0981 94.8196 71.3829C84.9034 54.4503 67.4299 42.8694 44.7429 42.8694H44.7331L43.537 42.8753L41.5469 42.8851V44.8753V61.9558C39.8976 63.0535 37.986 62.8028 36.5598 61.7206L36.5552 61.7171L3.22913 36.5812C2.42422 35.7919 1.99926 34.7698 2 33.7347C2.00075 32.6882 2.43658 31.6555 3.25996 30.8636L36.6235 3.5726Z" fill="#F9D100" stroke="#131D40" stroke-width="4"/>
</svg>
