<svg width="100" height="100" viewBox="0 0 100 100" fill="none" xmlns="http://www.w3.org/2000/svg">
<path d="M49.7819 4.15524e-06C22.2773 -0.0110924 0 22.2042 0 49.6237C0 71.3064 13.9358 89.7377 33.3436 96.5066C35.9573 97.1613 35.5569 95.3082 35.5569 94.0432V85.4434C20.4644 87.2077 19.8527 77.243 18.8406 75.5785C16.7942 72.0942 11.9561 71.2065 13.402 69.542C16.8387 67.7777 20.3421 69.9859 24.4016 75.9669C27.3378 80.3057 33.0656 79.5733 35.9684 78.852C36.6024 76.2443 37.9593 73.9141 39.8277 72.1053C24.1903 69.309 17.6728 59.7882 17.6728 48.4697C17.6728 42.9769 19.4857 37.928 23.0447 33.8555C20.7758 27.1421 23.256 21.3941 23.5897 20.5397C30.0515 19.9627 36.7692 25.1559 37.2919 25.5664C40.9622 24.5788 45.1552 24.0573 49.8486 24.0573C54.5643 24.0573 58.7684 24.601 62.4721 25.5997C63.7288 24.6454 69.9571 20.1846 75.963 20.7283C76.2855 21.5828 78.7101 27.1976 76.5747 33.8223C80.1782 37.9058 82.0134 42.9991 82.0134 48.503C82.0134 59.8436 75.4514 69.3756 59.7694 72.1275C61.1126 73.4454 62.1792 75.0172 62.9067 76.751C63.6343 78.4847 64.0083 80.3458 64.0069 82.2254V94.709C64.0959 95.7077 64.0069 96.6953 65.6752 96.6953C85.3722 90.0706 99.5527 71.5061 99.5527 49.6348C99.5527 22.2042 77.2643 4.15524e-06 49.7819 4.15524e-06V4.15524e-06Z" fill="#131D40"/>
</svg>
