<?xml version="1.0" standalone="no"?>
<!DOCTYPE svg PUBLIC "-//W3C//DTD SVG 20010904//EN"
 "http://www.w3.org/TR/2001/REC-SVG-20010904/DTD/svg10.dtd">
<svg version="1.0" xmlns="http://www.w3.org/2000/svg"
 width="260.000000pt" height="260.000000pt" viewBox="0 0 260.000000 260.000000"
 preserveAspectRatio="xMidYMid meet">
<metadata>
Created by potrace 1.11, written by Peter Selinger 2001-2013
</metadata>
<g transform="translate(0.000000,260.000000) scale(0.100000,-0.100000)"
fill="#000000" stroke="none">
<path d="M1458 2410 l-98 -98 185 -184 184 -183 -185 -182 -184 -183 101 -101
101 -101 25 24 c14 13 98 94 186 182 l160 158 183 -183 184 -184 102 102 103
103 -183 181 -183 182 23 25 c13 13 95 96 183 184 l159 159 -102 102 -102 102
-184 -184 -183 -183 -182 181 c-100 100 -185 181 -189 180 -4 0 -51 -44 -104
-99z"/>
<path d="M607 2484 c-1 -1 -24 -5 -50 -8 -111 -15 -242 -88 -321 -178 -212
-243 -161 -624 108 -799 273 -178 631 -87 779 199 35 67 41 86 53 158 54 317
-184 607 -514 627 -29 2 -54 2 -55 1z m166 -253 c59 -25 126 -92 157 -156 20
-41 25 -65 24 -130 0 -130 -56 -222 -171 -281 -50 -25 -69 -29 -138 -29 -91 0
-142 21 -208 84 -178 168 -98 471 140 531 53 13 141 4 196 -19z"/>
<path d="M195 1120 l-100 -100 183 -183 182 -182 -180 -181 c-127 -126 -179
-184 -174 -194 4 -8 49 -55 101 -105 l93 -89 183 182 182 182 180 -180 c99
-99 183 -180 186 -180 3 0 51 45 106 99 l100 99 -183 183 -184 184 182 182
183 183 -102 102 -101 101 -183 -182 -182 -181 -30 27 c-16 16 -97 97 -180
180 -84 84 -154 153 -157 153 -3 0 -50 -45 -105 -100z"/>
<path d="M1815 1181 c-277 -79 -446 -352 -389 -627 23 -116 67 -197 149 -279
351 -352 951 -90 929 405 -5 124 -58 253 -141 345 -129 143 -362 210 -548 156z
m260 -229 c134 -51 229 -196 211 -324 -13 -94 -37 -142 -104 -205 -120 -114
-319 -112 -437 3 -208 202 -64 548 225 542 36 0 83 -8 105 -16z"/>
</g>
</svg>
